<!-- icon666.com - MILLIONS vector ICONS FREE --><svg version="1.1" id="Capa_1" xmlns="http://www.w3.org/2000/svg" xmlns:xlink="http://www.w3.org/1999/xlink" x="0px" y="0px" viewBox="0 0 512.001 512.001" style="enable-background:new 0 0 512.001 512.001;" xml:space="preserve"><g><g><path d="M484.835,244.692L332.201,92.057c-6.267-6.267-16.351-6.267-22.618,0s-6.267,16.351,0,22.618L434.918,240.01H124.822 c-8.86,0-15.991,7.131-15.991,15.991c0,8.86,7.131,15.991,15.991,15.991h310.096L309.583,397.326 c-6.267,6.267-6.267,16.351,0,22.618c3.097,3.097,7.203,4.682,11.309,4.682c4.106,0,8.212-1.585,11.309-4.682L484.835,267.31 C491.102,261.043,491.102,250.886,484.835,244.692z"></path></g></g><g><g><path d="M442.841,123.679c8.86,0,15.991-7.131,15.991-15.991V15.992c0-8.86-7.131-15.991-15.991-15.991H38.456 c-8.86-0.072-15.991,7.131-15.991,15.991V496.01c0,8.86,7.131,15.991,15.991,15.991h404.385c8.86,0,15.991-7.131,15.991-15.991 v-91.84c0-8.86-7.131-15.991-15.991-15.991c-8.86,0-15.991,7.131-15.991,15.991v75.777H54.447V31.911H426.85v75.777 C426.85,116.548,433.981,123.679,442.841,123.679z"></path></g></g></svg>