<!-- icon666.com - MILLIONS vector ICONS FREE --><svg id="Layer_1" enable-background="new 0 0 512 512" viewBox="0 0 512 512" xmlns="http://www.w3.org/2000/svg"><g><g><path d="m402.05 75.502c-80.662-80.66-211.443-80.66-292.105 0-80.659 80.662-80.659 211.443 0 292.105l117.711 117.707c15.586 15.59 41.098 15.59 56.688 0l117.706-117.707c80.659-80.662 80.659-211.443 0-292.105zm-146.051 223.512c-42.781-.002-77.457-34.678-77.459-77.457.002-42.777 34.678-77.459 77.455-77.459 42.779.004 77.456 34.682 77.458 77.461 0 42.777-34.679 77.455-77.454 77.455z" fill="#ff5b5b"></path></g><g><path d="m412.659 64.889c-41.846-41.844-97.48-64.889-156.659-64.889-59.178 0-114.814 23.045-156.66 64.889-41.843 41.845-64.887 97.48-64.887 156.659s23.044 114.814 64.888 156.659l117.709 117.706c10.371 10.374 24.205 16.087 38.951 16.087 14.745 0 28.578-5.713 38.951-16.086l117.707-117.707c41.844-41.845 64.888-97.48 64.888-156.659s-23.044-114.815-64.888-156.659zm-21.213 292.105-117.707 117.707c-4.707 4.707-11.007 7.299-17.738 7.299-6.732 0-13.03-2.592-17.736-7.299l-117.71-117.707c-74.683-74.686-74.683-196.207 0-270.893 36.177-36.177 84.28-56.101 135.445-56.101s99.268 19.924 135.446 56.102c74.682 74.685 74.682 196.207 0 270.892z"></path><path d="m255.998 129.091c-50.978 0-92.453 41.477-92.455 92.46.002 50.978 41.479 92.454 92.458 92.456h.001c50.979 0 92.454-41.476 92.454-92.456-.002-50.978-41.478-92.455-92.458-92.46zm.005 154.916c-34.439-.002-62.458-28.02-62.46-62.456.001-34.44 28.019-62.46 62.454-62.46 34.438.003 62.457 28.023 62.459 62.461 0 34.437-28.017 62.455-62.453 62.455z"></path></g></g></svg>