<!-- icon666.com - MILLIONS vector ICONS FREE --><svg id="_x33_0" enable-background="new 0 0 64 64" viewBox="0 0 64 64" xmlns="http://www.w3.org/2000/svg"><path d="m61 7h-18.153l-.722-4.329c-.16-.968-.99-1.671-1.972-1.671h-16.306c-.982 0-1.812.703-1.973 1.671l-.721 4.329h-18.153c-1.103 0-2 .897-2 2v52c0 1.103.897 2 2 2h58c1.103 0 2-.897 2-2v-52c0-1.103-.897-2-2-2zm-37.153-4h16.306l1.667 10h-1.937l-1-8h-13.766l-1 8h-1.937zm13.27 4 .25 2h-2.367v-2zm-4.117 2h-2v-2h2zm-4 0h-2.367l.25-2h2.117zm-2.617 2h2.617v2h-2.867zm4.617 0h2v2h-2zm4 0h2.617l.25 2h-2.867zm9.181 4-1-6h3.819v8h-30v-8h3.82l-1 6zm-29.181-6v10h34v-10h12v22h-20.059c-.5-4.493-4.317-8-8.941-8s-8.441 3.507-8.941 8h-20.059v-22zm10.08 22c.488-3.387 3.401-6 6.92-6s6.432 2.613 6.92 6zm13.84 2c-.488 3.386-3.401 6-6.92 6s-6.432-2.614-6.92-6zm8.08 28h-3.153l-1.721-10.328c-.161-.969-.991-1.672-1.973-1.672h-16.306c-.982 0-1.812.703-1.973 1.672l-1.721 10.328h-3.153v-14h30zm-9.883-6 .25 2h-2.367v-2zm-4.117 2h-2v-2h2zm-4 0h-2.367l.25-2h2.117zm-2.617 2h2.617v2h-2.867zm4.617 0h2v2h-2zm4 0h2.617l.25 2h-2.867zm3.883-6h-13.766l-1 8h-1.937l1.667-10h16.306l1.667 10h-1.937zm10.117 8v-16h-34v16h-12v-28h20.059c.5 4.493 4.317 8 8.941 8s8.442-3.507 8.941-8h20.059v28z" fill="#000000" style="fill: rgb(31, 25, 25);"></path></svg>