<!-- icon666.com - MILLIONS vector ICONS FREE --><svg version="1.1" id="Layer_1" xmlns="http://www.w3.org/2000/svg" xmlns:xlink="http://www.w3.org/1999/xlink" x="0px" y="0px" viewBox="0 0 512 512" style="enable-background:new 0 0 512 512;" xml:space="preserve"><g><g><g><path d="M505.744,163.312c-3.936-3.024-9.04-4.016-13.872-2.768l-104.208,27.792C395.888,168.112,400,151.424,400,137.84 C400,61.84,335.408,0,256,0S112,61.84,112,137.84c0,13.584,4.112,30.272,12.336,50.48L20.128,160.528 c-4.8-1.264-9.92-0.256-13.872,2.768C2.32,166.336,0,171.024,0,176v288c0,7.248,4.88,13.6,11.872,15.456l120,32 c1.344,0.352,2.672,0.512,3.984,0.528c0.048,0,0.08,0.016,0.128,0.016H136h0.016c0.048,0,0.08-0.016,0.128-0.016 c1.328-0.016,2.656-0.176,3.984-0.528L256,480.56l115.872,30.896c1.344,0.352,2.672,0.512,3.984,0.528 c0.048,0,0.08,0.016,0.128,0.016H376h0.016c0.048,0,0.08-0.016,0.128-0.016c1.328-0.016,2.656-0.176,3.984-0.528l120-32 C507.12,477.6,512,471.248,512,464V176C512,171.024,509.68,166.336,505.744,163.312z M128,477.312l-96-25.6v-254.88l96,25.6 V477.312z M248,449.584l-104,27.728V229.248c37.92,70.032,96.736,145.216,99.424,148.64c0.336,0.432,0.864,0.592,1.232,0.992 c0.528,0.544,0.832,1.232,1.456,1.712c0.592,0.464,1.264,0.656,1.888,1.024V449.584z M368,477.296l-104-27.728V381.6 c0.624-0.368,1.312-0.56,1.888-1.024c0.608-0.48,0.928-1.152,1.456-1.712c0.368-0.384,0.896-0.56,1.232-0.992 c2.688-3.424,61.504-78.608,99.424-148.64V477.296z M348.512,197.376c0,0.016-0.016,0.016-0.032,0.032 c-26.064,52.912-70.784,115.12-92.48,144.16c-21.696-29.04-66.4-91.2-92.48-144.16c0-0.016-0.016-0.032-0.032-0.048 C147.392,164.704,144,146.96,144,137.84C144,79.488,194.256,32,256,32s112,47.488,112,105.84 C368,146.96,364.608,164.704,348.512,197.376z M480,451.712l-96,25.6v-254.88l96-25.6V451.712z"></path><path d="M256,88c-30,0-54.4,24.096-54.4,53.712c0,29.616,24.4,53.712,54.4,53.712s54.4-24.096,54.4-53.712S286,88,256,88z M256,163.424c-12.352,0-22.4-9.744-22.4-21.712C233.6,129.744,243.648,120,256,120s22.4,9.744,22.4,21.712 C278.4,153.696,268.352,163.424,256,163.424z"></path></g></g></g></svg>